<?xml version="1.0" encoding="iso-8859-1"?>
<!-- Uploaded to: SVG Repo, www.svgrepo.com, Generator: SVG Repo Mixer Tools -->
<svg fill="#000000" height="800px" width="800px" version="1.1" id="Layer_1" xmlns="http://www.w3.org/2000/svg" xmlns:xlink="http://www.w3.org/1999/xlink" 
	 viewBox="0 0 512 512" xml:space="preserve">
<g>
	<g>
		<path d="M501.756,117.263c-4.17-0.207-7.75,3.058-7.938,7.254l-0.38,8.445c-0.533,7.946,7.486,7.946,7.602,7.946
			c4.041,0,7.407-3.184,7.59-7.262l0.38-8.445C509.2,121.006,505.952,117.452,501.756,117.263z"/>
	</g>
</g>
<g>
	<g>
		<path d="M502.612,30.445c-9.158-9.706-21.246-10.141-22.694-10.16H246.421c-1.347,0.018-13.435,0.453-22.594,10.159
			c-6.751,7.156-9.888,17.149-9.324,29.702L225.76,310.48H30.323c-10.456,0-18.475,3.179-23.833,9.447
			c-7.977,9.332-6.524,21.877-6.13,24.406c0.001,0.011,0.003,0.022,0.005,0.033c6.164,40.228,26.593,77.131,57.52,103.91
			c31.248,27.057,71.249,41.958,112.635,41.958c24.143,0,47.387-4.883,69.204-14.492c6.813,10.336,17.555,15.973,30.738,15.973
			h185.515c29.004,0,37.754-25.806,38.327-39.431l13.323-296.302c0.19-4.195-3.06-7.749-7.254-7.938
			c-4.208-0.199-7.75,3.059-7.938,7.254l-13.324,296.315c-0.12,2.548-1.793,24.892-23.133,24.892H270.462
			c-21.339,0-23.012-22.339-23.134-24.905L229.695,59.463c-0.368-8.201,1.34-14.412,5.082-18.461
			c4.613-4.992,11.267-5.475,11.877-5.508h233.133c0.609,0.033,7.262,0.516,11.876,5.508c3.74,4.048,5.45,10.26,5.082,18.462
			l-1.87,41.582c-0.19,4.195,3.06,7.75,7.254,7.939c4.198,0.165,7.75-3.06,7.938-7.255l1.87-41.584
			C512.5,47.592,509.363,37.6,502.612,30.445z M232.132,452.206c0.008,0.253,0.174,4.242,1.551,9.579
			c-19.904,8.78-41.12,13.24-63.165,13.24c-76.815,0.002-143.505-57.16-155.122-132.963c-0.003-0.022-0.007-0.046-0.01-0.068
			c-0.05-0.313-1.162-7.711,2.662-12.186c2.338-2.734,6.468-4.121,12.273-4.121h196.121L232.132,452.206z"/>
	</g>
</g>
<g>
	<g>
		<path d="M471.004,62.772c-7.56-7.961-18.059-8.259-19.282-8.267H278.03c-1.172,0.008-11.67,0.306-19.23,8.266
			c-5.052,5.321-7.414,12.491-7.017,21.313l11.422,254.029c0.189,4.196,3.756,7.43,7.938,7.255c4.195-0.19,7.444-3.742,7.254-7.939
			L266.975,83.404c-0.201-4.484,0.735-7.877,2.783-10.083c3.039-3.273,7.977-3.583,8.422-3.604H451.62
			c0.444,0.021,5.385,0.332,8.422,3.605c2.049,2.206,2.985,5.599,2.783,10.083l-15.568,346.226
			c-0.021,0.496-0.623,12.148-9.327,12.148H291.871c-8.409,0-9.261-10.946-9.329-12.163l-2.989-66.491
			c-0.189-4.196-3.778-7.433-7.938-7.255c-4.195,0.19-7.444,3.742-7.254,7.939l2.988,66.476c0.398,9.235,6.035,26.702,24.523,26.702
			h146.06c18.487,0,24.124-17.467,24.521-26.688L478.02,84.085C478.418,75.263,476.056,68.093,471.004,62.772z"/>
	</g>
</g>
<g>
	<g>
		<path d="M93.157,345.895c-1.419-1.419-3.377-2.231-5.384-2.231c-1.998,0-3.955,0.811-5.374,2.231
			c-1.419,1.409-2.231,3.376-2.231,5.374c0,2.008,0.811,3.964,2.231,5.384c1.419,1.409,3.375,2.22,5.374,2.22
			c2.006,0,3.964-0.812,5.384-2.22c1.409-1.419,2.22-3.376,2.22-5.384C95.378,349.272,94.568,347.315,93.157,345.895z"/>
	</g>
</g>
<g>
	<g>
		<path d="M118.66,382.408c-1.419-1.419-3.377-2.231-5.384-2.231c-1.998,0-3.955,0.811-5.374,2.231
			c-1.419,1.409-2.231,3.376-2.231,5.374c0,2.008,0.811,3.964,2.231,5.384c1.419,1.409,3.375,2.22,5.374,2.22
			c2.006,0,3.964-0.812,5.384-2.22c1.409-1.419,2.22-3.376,2.22-5.384C120.881,385.784,120.071,383.828,118.66,382.408z"/>
	</g>
</g>
<g>
	<g>
		<path d="M149.077,345.895c-1.419-1.419-3.377-2.231-5.384-2.231c-1.998,0-3.955,0.811-5.374,2.231
			c-1.419,1.409-2.231,3.376-2.231,5.374c0,2.008,0.811,3.964,2.231,5.384c1.419,1.409,3.375,2.22,5.374,2.22
			c2.006,0,3.964-0.812,5.384-2.22c1.409-1.419,2.22-3.376,2.22-5.384C151.297,349.272,150.487,347.315,149.077,345.895z"/>
	</g>
</g>
<g>
	<g>
		<path d="M165.923,394.984c-1.419-1.419-3.377-2.231-5.384-2.231c-1.998,0-3.955,0.811-5.374,2.231
			c-1.419,1.409-2.231,3.376-2.231,5.374c0,2.007,0.811,3.964,2.231,5.384c1.419,1.409,3.375,2.22,5.374,2.22
			c2.008,0,3.965-0.812,5.384-2.22c1.409-1.419,2.22-3.376,2.22-5.384C168.144,398.361,167.334,396.404,165.923,394.984z"/>
	</g>
</g>
<g>
	<g>
		<path d="M155.556,443.724c-25.202-2.999-48.648-13.352-67.806-29.939c-3.172-2.748-7.975-2.404-10.726,0.772
			c-2.749,3.174-2.404,7.977,0.772,10.726c21.464,18.584,47.731,30.183,75.965,33.542c0.305,0.036,6.779,1.725,8.449-6.652
			C163.03,448.055,159.726,444.22,155.556,443.724z"/>
	</g>
</g>
<g>
	<g>
		<path d="M71.443,396.779c-1.981-2.491-3.89-5.088-5.675-7.718c-2.359-3.476-7.089-4.381-10.562-2.023
			c-3.476,2.357-4.381,7.086-2.023,10.562c1.998,2.944,3.977,5.986,6.354,8.642c5.089,5.688,9.285,2.332,10.684,1.221
			C73.509,404.849,74.056,400.067,71.443,396.779z"/>
	</g>
</g>
<g>
	<g>
		<path d="M388.843,333.525c-13.976,0-25.347,11.371-25.347,25.347c0,13.976,11.371,25.347,25.347,25.347
			c13.976,0,25.347-11.371,25.347-25.347C414.19,344.896,402.82,333.525,388.843,333.525z M388.843,369.011
			c-5.591,0-10.139-4.548-10.139-10.139c0-5.591,4.548-10.139,10.139-10.139c5.591,0,10.139,4.548,10.139,10.139
			C398.982,364.463,394.434,369.011,388.843,369.011z"/>
	</g>
</g>
<g>
	<g>
		<path d="M406.586,212.658c-13.976,0-25.347,11.371-25.347,25.347s11.371,25.347,25.347,25.347
			c13.976,0,25.347-11.371,25.347-25.347S420.563,212.658,406.586,212.658z M406.586,248.143c-5.591,0-10.139-4.548-10.139-10.139
			s4.548-10.139,10.139-10.139s10.139,4.548,10.139,10.139S412.177,248.143,406.586,248.143z"/>
	</g>
</g>
<g>
	<g>
		<path d="M371.101,104.072c-13.976,0-25.347,11.371-25.347,25.347s11.371,25.347,25.347,25.347
			c13.976,0,25.347-11.37,25.347-25.347C396.448,115.443,385.077,104.072,371.101,104.072z M371.101,139.558
			c-5.591,0-10.139-4.548-10.139-10.139s4.548-10.139,10.139-10.139c5.591,0,10.139,4.548,10.139,10.139
			S376.691,139.558,371.101,139.558z"/>
	</g>
</g>
</svg>